<svg id="svg-linkedin" viewBox="0 0 15 14" fill="none">
                    <path d="M0.770574 4.7506H3.74519V13.0718H0.770574V4.7506ZM2.25788 0.633789C3.15026 0.633789 3.9435 1.33452 3.9435 2.12285C3.9435 2.91117 3.15026 3.61191 2.25788 3.61191C1.3655 3.61191 0.572266 2.91117 0.572266 2.12285C0.572266 1.33452 1.3655 0.633789 2.25788 0.633789Z">
                    </path>
                    <path d="M5.5293 4.75087H8.3056V5.88956C8.70222 5.27642 9.69376 4.57568 11.0819 4.57568C14.0565 4.57568 14.5523 6.32752 14.5523 8.51731V13.0721H11.6768V9.04286C11.6768 8.07935 11.6768 6.85307 10.1895 6.85307C8.70222 6.85307 8.40476 7.90417 8.40476 8.95527V13.0721H5.5293V4.75087Z">
                    </path>
                </svg>